<svg xmlns="http://www.w3.org/2000/svg" width="21.578" height="26.489" viewBox="0 0 21.578 26.489">
  <g id="Groupe_113" data-name="Groupe 113" transform="translate(2.032 0.248)">
    <path id="Tracé_104" data-name="Tracé 104" d="M1879.805-1285.025a.935.935,0,0,1,0-1.455c.823-.713,1.279-.3,1.308-.176s.073,1.131-.514,1.455S1879.805-1285.025,1879.805-1285.025Z" transform="translate(-1863.257 1305.396)" fill="none" stroke="#161615" stroke-miterlimit="10" stroke-width="0.5"/>
    <path id="Tracé_105" data-name="Tracé 105" d="M1884.844-1328.5s-1.067-1.453-.135-2.3a1.806,1.806,0,0,0,.568-.862c.167-.558,1.352-.8,1.421-.382a8.522,8.522,0,0,1,.107,2.234,1.061,1.061,0,0,1-.35.466" transform="translate(-1867.582 1345.54)" fill="none" stroke="#161615" stroke-miterlimit="10" stroke-width="0.5"/>
    <path id="Tracé_106" data-name="Tracé 106" d="M1851.17-1367.739s-2.459-.155-2.6-1.6a2.505,2.505,0,0,1,.892-1.754c.853-.647,1.333-.617,1.46-.843s2.528,1.426,2.616,1.987" transform="translate(-1835.945 1380.667)" fill="none" stroke="#161615" stroke-miterlimit="10" stroke-width="0.5"/>
    <path id="Tracé_107" data-name="Tracé 107" d="M1874.7-1286.454s.417,4.557-.838,5.184a8.27,8.27,0,0,1,.5-5.576s-.752.24-.69-.755.2-1,.294-.867.637.507.82.412" transform="translate(-1858.09 1306.849)" fill="none" stroke="#161615" stroke-miterlimit="10" stroke-width="0.5"/>
    <path id="Tracé_108" data-name="Tracé 108" d="M1872.746-1316.619s-.7-.91-.343-1.233a2.539,2.539,0,0,0,1.107-.3c.255-.241.177-.285.177-.285" transform="translate(-1856.942 1333.31)" fill="none" stroke="#161615" stroke-miterlimit="10" stroke-width="0.5"/>
    <path id="Tracé_109" data-name="Tracé 109" d="M1820.392-1358.137s-2.1-.347-2.371-1.356a4.507,4.507,0,0,0,1.09-1.127" transform="translate(-1808.909 1370.64)" fill="none" stroke="#161615" stroke-miterlimit="10" stroke-width="0.5"/>
    <path id="Tracé_110" data-name="Tracé 110" d="M1745.966-1427.546s-1.42-1.369-2.243-1.32c0,0,.948-.394,2.14.758" transform="translate(-1743.165 1431.086)" fill="none" stroke="#161615" stroke-miterlimit="10" stroke-width="0.5"/>
    <path id="Tracé_111" data-name="Tracé 111" d="M1741.851-1420.922s-1.039-2.418-2.979-2.638c0,0,1.533-.206,2.919,1.778" transform="translate(-1738.872 1426.339)" fill="none" stroke="#161615" stroke-miterlimit="10" stroke-width="0.5"/>
    <path id="Tracé_112" data-name="Tracé 112" d="M1757.714-1369.009a8.036,8.036,0,0,1-2.3.763,32.5,32.5,0,0,1-.522,5.056,45.2,45.2,0,0,0,.115-5.3,9.192,9.192,0,0,0,2.318-.957" transform="translate(-1753.05 1378.447)" fill="none" stroke="#161615" stroke-miterlimit="10" stroke-width="0.5"/>
    <path id="Tracé_113" data-name="Tracé 113" d="M1748.194-1376.529s-1.408.6-2.309.86c0,0-.392,4.458-.97,4.811a19.463,19.463,0,0,0,.7-5.066,12.24,12.24,0,0,0,2.325-1.05" transform="translate(-1744.219 1385.11)" fill="none" stroke="#161615" stroke-miterlimit="10" stroke-width="0.5"/>
    <path id="Tracé_114" data-name="Tracé 114" d="M1763.487-1360.28a5.659,5.659,0,0,1-2.462.715s-.108,4.831-.451,5.575a25.237,25.237,0,0,0,.756-5.3,9.765,9.765,0,0,0,2.951-.534" transform="translate(-1758.076 1370.339)" fill="none" stroke="#161615" stroke-miterlimit="10" stroke-width="0.5"/>
    <path id="Tracé_115" data-name="Tracé 115" d="M1885.173-1304.989s-.189-1.153.136-1.447a4.243,4.243,0,0,1,.844-.519c.215-.137.617-.6.871-.568s.187.372.187.372-.529,1.822-.8,1.891l-.4.2" transform="translate(-1868.282 1323.657)" fill="none" stroke="#161615" stroke-miterlimit="10" stroke-width="0.5"/>
    <path id="Tracé_116" data-name="Tracé 116" d="M1872.591-1350.26s-1.957-.978-1.711-2.006a2.84,2.84,0,0,1,.529-1.244,1.831,1.831,0,0,1,1.182-.794c.542-.068.483-.323.767-.147a3.96,3.96,0,0,1,1.362,1.718s.205.623,0,.883" transform="translate(-1855.664 1365.235)" fill="none" stroke="#161615" stroke-miterlimit="10" stroke-width="0.5"/>
    <path id="Tracé_117" data-name="Tracé 117" d="M1831.138-1377.72s-1.866-.277-2.366-1.593c0,0,1.136-.758,1.146-1.248,0,0-2.724-.255-2.4-1.333a4.757,4.757,0,0,0,.441-1.166c.108-.559.872-1.538,1.166-1.489s2.773.735,3.145,1.47" transform="translate(-1817.289 1391.815)" fill="none" stroke="#161615" stroke-miterlimit="10" stroke-width="0.5"/>
    <path id="Tracé_118" data-name="Tracé 118" d="M1874.924-1301.043a5.278,5.278,0,0,1-.115-1.4c.1-.257.171-.225.171-.225s1.132.51,1.417.345" transform="translate(-1859.135 1319.364)" fill="none" stroke="#161615" stroke-miterlimit="10" stroke-width="0.5"/>
    <path id="Tracé_119" data-name="Tracé 119" d="M1860.781-1332.833a1.6,1.6,0,0,1-1.612-1.362s1.159-.634,1.346-1.168" transform="translate(-1845.321 1348.291)" fill="none" stroke="#161615" stroke-miterlimit="10" stroke-width="0.5"/>
    <path id="Tracé_120" data-name="Tracé 120" d="M1861.958-1270.648a6.458,6.458,0,0,1-1.426,2.224c-.5-1.94,1.772-5.8,1.772-5.8" transform="translate(-1846.463 1294.188)" fill="none" stroke="#161615" stroke-miterlimit="10" stroke-width="0.5"/>
    <path id="Tracé_121" data-name="Tracé 121" d="M1851.609-1275.639s-3.278,2.045-3.042,4.864a3.352,3.352,0,0,0,1.646-1.2" transform="translate(-1835.928 1295.443)" fill="none" stroke="#161615" stroke-miterlimit="10" stroke-width="0.5"/>
    <path id="Tracé_122" data-name="Tracé 122" d="M1747.984-1436.493a5.9,5.9,0,0,1-6.129-5.648s-.117-2.748-.543-3.16-2.44-2.175-2.44-2.175.044-.294.25-.088,4.637,2.778,5.956,3.821a22.442,22.442,0,0,0,4.091,2.381,6.749,6.749,0,0,1,1.539.989" transform="translate(-1738.872 1447.64)" fill="none" stroke="#161615" stroke-miterlimit="10" stroke-width="0.5"/>
  </g>
</svg>
