<svg xmlns="http://www.w3.org/2000/svg" width="26.64" height="27.274" viewBox="0 0 26.64 27.274">
  <g id="Groupe_110" data-name="Groupe 110" transform="translate(0.25 1.359)">
    <path id="Tracé_64" data-name="Tracé 64" d="M1775.92,4105.142s12.365-7.362,14.272-7.15,1.986.239,2.383.741a2.565,2.565,0,0,1-1.3,3.761c-2.278.847-12.18,2.992-14.775,3.416C1776.5,4105.909,1774.9,4106.022,1775.92,4105.142Z" transform="translate(-1775.581 -4080.251)" fill="none" stroke="#030502" stroke-miterlimit="10" stroke-width="0.5"/>
    <path id="Tracé_65" data-name="Tracé 65" d="M1781.145,4101.72s-5.858-1.288-3.183-7.035l1.522-2.516a3.239,3.239,0,0,0,2.423-.41s2.912,1.813,3.548,3.324a4.927,4.927,0,0,1,.166,4.248" transform="translate(-1775.716 -4079.752)" fill="none" stroke="#030502" stroke-miterlimit="10" stroke-width="0.5"/>
    <g id="Groupe_57" data-name="Groupe 57" transform="translate(1.662 0)">
      <path id="Tracé_66" data-name="Tracé 66" d="M1779.494,4091.355a21.706,21.706,0,0,0-2.105-9.744s3.575,4.5,3.389,9.744" transform="translate(-1777.389 -4078.938)" fill="none" stroke="#030502" stroke-miterlimit="10" stroke-width="0.5"/>
      <path id="Tracé_67" data-name="Tracé 67" d="M1782.12,4090.713a102.9,102.9,0,0,1-1.53-12.008,15.705,15.705,0,0,0-.28,7.938" transform="translate(-1777.591 -4078.705)" fill="none" stroke="#030502" stroke-miterlimit="10" stroke-width="0.5"/>
      <path id="Tracé_68" data-name="Tracé 68" d="M1794.309,4098.924s2.057-1.518,3.069-.9c0,0,.874-.236.4-.454s-.119-.538-.119-.538a4.573,4.573,0,0,0,1.628-.457c.557-.356-.3-.376-.3-.376-.734-.24-.238-.478-.238-.478a11.042,11.042,0,0,0,3.118-1.212c.278-.178,1.549-1.071.278-1.667s-3.177,1.907-3.595,2.065-.2-.478-.715-.716-1.35,2.384-1.291,1.728a.808.808,0,0,0-.357-.854c-1.39-.02-2.315,3.048-2.315,3.048" transform="translate(-1778.71 -4079.831)" fill="none" stroke="#030502" stroke-miterlimit="10" stroke-width="0.5"/>
      <path id="Tracé_69" data-name="Tracé 69" d="M1794.462,4100.148s2.427,1.331,3.082,1.191.12-.714.12-.714.166-.319.669.06.781.5,1.059.337-.556-.775-.358-.874,2.48,1.172,3.713.517-.178-1.235-.814-1.282a24.007,24.007,0,0,0-2.521.15s-.238-.357-.08-.6.06-.556-.4-.437-.814.438-1.013.4-.169-.295-.5-.416" transform="translate(-1778.758 -4080.29)" fill="none" stroke="#030502" stroke-miterlimit="10" stroke-width="0.5"/>
      <path id="Tracé_70" data-name="Tracé 70" d="M1788.256,4100.038a9.718,9.718,0,0,0,1.206,3.432" transform="translate(-1778.26 -4080.416)" fill="none" stroke="#030502" stroke-miterlimit="10" stroke-width="0.5"/>
      <path id="Tracé_71" data-name="Tracé 71" d="M1790.89,4100.756a4.314,4.314,0,0,0,1.111,2.129" transform="translate(-1778.471 -4080.474)" fill="none" stroke="#030502" stroke-miterlimit="10" stroke-width="0.5"/>
      <path id="Tracé_72" data-name="Tracé 72" d="M1783.24,4102.165a8.346,8.346,0,0,0,.738,2.674" transform="translate(-1777.858 -4080.586)" fill="none" stroke="#030502" stroke-miterlimit="10" stroke-width="0.5"/>
      <path id="Tracé_73" data-name="Tracé 73" d="M1786.112,4102.165a6.044,6.044,0,0,0,.9,2.032" transform="translate(-1778.088 -4080.586)" fill="none" stroke="#030502" stroke-miterlimit="10" stroke-width="0.5"/>
      <path id="Tracé_74" data-name="Tracé 74" d="M1785.146,4089.9a2.2,2.2,0,0,1,1.788-.979c1.258-.053,1.39.186,1.469,0s-.265-1.668.4-1.748,1.046-.105,1.026.639.07,1.251.3,1.191,2.455-.479,3.2.58c0,0,.159.3-.172.317s-1.721-.239-1.793,0,.979,1.363,1.218,1.914-.457.238-.457.238-1.417-1.119-1.912-.808-.391,1.875-.391,1.875a1.328,1.328,0,0,1-.371.847c-.344.291-.754.594-.808-.132s.027-3.417-.834-2.754a7.511,7.511,0,0,0-1.417.9s-.768.542-.715.052a3.778,3.778,0,0,1,1.323-1.8c.437-.253.119-.835-.662-.623s-.979.688-1.086.49Z" transform="translate(-1778.011 -4079.381)" fill="none" stroke="#030502" stroke-miterlimit="10" stroke-width="0.5"/>
      <path id="Tracé_75" data-name="Tracé 75" d="M1783.1,4092.146a13.719,13.719,0,0,1,1.925-1.923" transform="translate(-1777.847 -4079.629)" fill="none" stroke="#030502" stroke-miterlimit="10" stroke-width="0.5"/>
      <path id="Tracé_76" data-name="Tracé 76" d="M1794.074,4090.014s2.318,1.762,2.565,3.476a4.972,4.972,0,0,1,.087,2.054" transform="translate(-1778.727 -4079.612)" fill="none" stroke="#030502" stroke-miterlimit="10" stroke-width="0.5"/>
    </g>
  </g>
</svg>
