<svg xmlns="http://www.w3.org/2000/svg" width="30.249" height="21.772" viewBox="0 0 30.249 21.772">
  <g id="Groupe_112" data-name="Groupe 112" transform="translate(0.469 0.254)">
    <path id="Tracé_40" data-name="Tracé 40" d="M1798.656,4001.731c-.125-.038-7.186-2.091-9.189-4.051s-1.48-3.136-1.48-3.136.566-.957,3.31.7,8.71,5.576,9.929,4.226-2.264-3.877-2.264-3.877-11.28-10.975-19.729-9.538-6.881,6.62-6.881,6.62.174,6.664,18.466,9.713c0,0,3.877.783,5.619,1.349a2.834,2.834,0,0,0,2.831-.522S1799.651,4002.021,1798.656,4001.731Z" transform="translate(-1772.124 -3985.921)" fill="none" stroke="#030502" stroke-miterlimit="10" stroke-width="0.5"/>
    <path id="Tracé_41" data-name="Tracé 41" d="M1799.26,4003.453v3.223s-1.133,1.524-6.185,0-7.1-1.023-9.973-2.538-9.756-4.213-10.365-6.13a17.644,17.644,0,0,1-.479-6.562" transform="translate(-1772.118 -3986.162)" fill="none" stroke="#030502" stroke-miterlimit="10" stroke-width="0.5"/>
    <path id="Tracé_42" data-name="Tracé 42" d="M1772.94,3989.5a5.5,5.5,0,0,1,3.913-.353,62.441,62.441,0,0,1,6.387,3.078s-.523,1.277.376,1.655a6.548,6.548,0,0,0,2.788,0l1.623.782" transform="translate(-1772.154 -3986.051)" fill="none" stroke="#030502" stroke-miterlimit="10" stroke-width="0.5"/>
    <path id="Tracé_43" data-name="Tracé 43" d="M1776.652,3986.8s-.419,1.95.358,2.247" transform="translate(-1772.312 -3985.96)" fill="none" stroke="#030502" stroke-miterlimit="10" stroke-width="0.5"/>
    <path id="Tracé_44" data-name="Tracé 44" d="M1783.9,3986.263s-4.629.452-4.424,3.765" transform="translate(-1772.439 -3985.935)" fill="none" stroke="#030502" stroke-miterlimit="10" stroke-width="0.5"/>
    <path id="Tracé_45" data-name="Tracé 45" d="M1787.1,3987.314a6.131,6.131,0,0,0-5.509,3.767" transform="translate(-1772.532 -3985.982)" fill="none" stroke="#030502" stroke-miterlimit="10" stroke-width="0.5"/>
    <path id="Tracé_46" data-name="Tracé 46" d="M1783.711,3992.347a3.31,3.31,0,0,1,3.339-.188s1.292.813-.174,1.844" transform="translate(-1772.625 -3986.177)" fill="none" stroke="#030502" stroke-miterlimit="10" stroke-width="0.5"/>
    <path id="Tracé_47" data-name="Tracé 47" d="M1791.087,3994.915s1.664-1.181,0-5.632l-3.885,2.766" transform="translate(-1772.777 -3986.068)" fill="none" stroke="#030502" stroke-miterlimit="10" stroke-width="0.5"/>
    <path id="Tracé_48" data-name="Tracé 48" d="M1794.819,3991.683a3.412,3.412,0,0,1-2.079,4.143" transform="translate(-1773.019 -3986.172)" fill="none" stroke="#030502" stroke-miterlimit="10" stroke-width="0.5"/>
    <path id="Tracé_49" data-name="Tracé 49" d="M1795.038,3997.26a3.928,3.928,0,0,0,2.553-3.411" transform="translate(-1773.119 -3986.268)" fill="none" stroke="#030502" stroke-miterlimit="10" stroke-width="0.5"/>
    <path id="Tracé_50" data-name="Tracé 50" d="M1797.708,3998.8s2.089-1.2,2.314-2.817" transform="translate(-1773.236 -3986.36)" fill="none" stroke="#030502" stroke-miterlimit="10" stroke-width="0.5"/>
    <path id="Tracé_51" data-name="Tracé 51" d="M1773.292,3994.959s-.321-3.162,6.078-4.677" transform="translate(-1772.17 -3986.111)" fill="none" stroke="#030502" stroke-miterlimit="10" stroke-width="0.5"/>
    <path id="Tracé_52" data-name="Tracé 52" d="M1781.526,3991.352l-.914.316c-8.077,2.636-3.364,6.63-3.364,6.63l6.5-4.316" transform="translate(-1772.283 -3986.158)" fill="none" stroke="#030502" stroke-miterlimit="10" stroke-width="0.5"/>
    <path id="Tracé_53" data-name="Tracé 53" d="M1777.4,3998.6s10.213,3.256,11.317-1.586" transform="translate(-1772.349 -3986.405)" fill="none" stroke="#030502" stroke-miterlimit="10" stroke-width="0.5"/>
    <path id="Tracé_54" data-name="Tracé 54" d="M1785.9,4001.81s4.228-.134,5.46-2.616" transform="translate(-1772.72 -3986.5)" fill="none" stroke="#030502" stroke-miterlimit="10" stroke-width="0.5"/>
    <path id="Tracé_55" data-name="Tracé 55" d="M1791.748,4003.042a3.113,3.113,0,0,0,2.725-2.421" transform="translate(-1772.976 -3986.563)" fill="none" stroke="#030502" stroke-miterlimit="10" stroke-width="0.5"/>
    <path id="Tracé_56" data-name="Tracé 56" d="M1794.888,4003.748s2.007-.765,2.5-2.049" transform="translate(-1773.113 -3986.609)" fill="none" stroke="#030502" stroke-miterlimit="10" stroke-width="0.5"/>
    <path id="Tracé_57" data-name="Tracé 57" d="M1802.82,4004.215" transform="translate(-1773.459 -3986.72)" fill="none" stroke="#030502" stroke-miterlimit="10" stroke-width="0.5"/>
    <path id="Tracé_58" data-name="Tracé 58" d="M1802.717,3999.378l.156,4.431a.211.211,0,0,1-.156.25,5.163,5.163,0,0,1-2.218,0" transform="translate(-1773.357 -3986.509)" fill="none" stroke="#030502" stroke-miterlimit="10" stroke-width="0.5"/>
  </g>
</svg>
