<svg xmlns="http://www.w3.org/2000/svg" width="21.964" height="24.77" viewBox="0 0 21.964 24.77">
  <g id="Groupe_111" data-name="Groupe 111" transform="translate(0.251 0.271)">
    <path id="Tracé_59" data-name="Tracé 59" d="M1774.347,4055.692a4.013,4.013,0,0,0,0-1.778c-.254-.508-.58-2.395.363-2.467a2.678,2.678,0,0,1,2.758,2.123c.254,1.542.98,1.578.508,2.993a.947.947,0,0,1-.373.513c-.779.517-2.276-.331-2.276-.331S1774.42,4056.381,1774.347,4055.692Z" transform="translate(-1774.08 -4033.023)" fill="none" stroke="#030502" stroke-miterlimit="10" stroke-width="0.5"/>
    <path id="Tracé_60" data-name="Tracé 60" d="M1775.925,4054.5s.889,1.1-.825,2.257" transform="translate(-1774.134 -4033.183)" fill="none" stroke="#030502" stroke-miterlimit="10" stroke-width="0.5"/>
    <path id="Tracé_61" data-name="Tracé 61" d="M1775.1,4050.419s5.4-.067,5.686-4.384,1.2-11.719,4.463-12.518,5.95-1.486,5.95-1.486,3.338-.944,4.317,7.764-7.51,8.416-7.51,8.416a9.537,9.537,0,0,0-5.188,3.266c-1.887,2.575-4.268,5.053-5.659,4.742" transform="translate(-1774.134 -4032)" fill="none" stroke="#030502" stroke-miterlimit="10" stroke-width="0.5"/>
    <path id="Tracé_62" data-name="Tracé 62" d="M1787.58,4033.167a5.927,5.927,0,0,1,5.182,4.293c1.271,4.137-.186,7.713.307,9.716" transform="translate(-1774.791 -4032.061)" fill="none" stroke="#030502" stroke-miterlimit="10" stroke-width="0.5"/>
    <path id="Tracé_63" data-name="Tracé 63" d="M1780.394,4051.811s.905.392.679,3.18" transform="translate(-1774.413 -4033.041)" fill="none" stroke="#030502" stroke-miterlimit="10" stroke-width="0.5"/>
  </g>
</svg>
