<svg xmlns="http://www.w3.org/2000/svg" width="32.593" height="17.523" viewBox="0 0 32.593 17.523">
  <g id="Groupe_114" data-name="Groupe 114" transform="translate(0.249 0.234)">
    <line id="Ligne_29" data-name="Ligne 29" x1="0.498" y1="0.373" transform="translate(21.092 7.583)" fill="none" stroke="#030502" stroke-miterlimit="10" stroke-width="0.5"/>
    <path id="Tracé_95" data-name="Tracé 95" d="M1762.285,4193.239s1.123.882,1.038,1.763.408.926.408.926c1.1.084,1.183.278,1.183.278a1.7,1.7,0,0,0,1.333.646,1.966,1.966,0,0,1,2.687.945c.839,1.246,2.365-.043,3.5.172s3.182-.515,4.106-.429,2.429-.71,3.1-.688.9-.495,1.354-.537a1.9,1.9,0,0,0,1.2-.968c.129-.344.774-.407,1.011-1.247s.73-1.118.752-1.4a3.585,3.585,0,0,0-.621-1.647,1.187,1.187,0,0,0-.5-.417c-.73-.279-.9-1.4-2.794-2.3a7.8,7.8,0,0,0-3.289-.854c-2.945.307-3.354.017-3.891-.177a5.729,5.729,0,0,0-2.258.323c-.494.106-2.256.063-2.558.127s-.537.86-1.978.731a2.479,2.479,0,0,0-2.321,1.268c-.28.344-1.161.387-1.3.773a13.44,13.44,0,0,0-.4,1.549,8.644,8.644,0,0,1,.172,2.708,1.5,1.5,0,0,0,.623,1.742s.366.559.688,1.14,2.085.729,3.01,1.439,2.688.43,3.117.581a5.939,5.939,0,0,0,3.59.5c1.72-.387,3.892-.044,4.3-.451s1.7-.237,2.279-.625,1.505-.709,2.128-1.117,1.269-2.214,1.785-2.645a2.275,2.275,0,0,0,.688-2.279,4.429,4.429,0,0,0-.834-1.9" transform="translate(-1762.052 -4183.25)" fill="none" stroke="#030502" stroke-miterlimit="10" stroke-width="0.5"/>
    <path id="Tracé_96" data-name="Tracé 96" d="M1764.828,4194.617a28.684,28.684,0,0,0,3.215-2.989c.054-.353.634-.558.913-.933s.882-.4.914-.613.537-.227.72-.41.419-.139.655-.377.978-.805,1.1-.708.107.248-.054.386-.183.462-.409.56a3.427,3.427,0,0,0-1.3.88,1.727,1.727,0,0,1-.656.227s-.247.043-.3.441a.516.516,0,0,1-.624.515c-.366-.021-.559.248-.785.623a1.327,1.327,0,0,1-.763.5s-.279.083-.269.5-2.138,1.4-2.138,1.4S1764.8,4194.742,1764.828,4194.617Z" transform="translate(-1762.666 -4183.544)" fill="none" stroke="#030502" stroke-miterlimit="10" stroke-width="0.5"/>
    <path id="Tracé_97" data-name="Tracé 97" d="M1770.018,4195.921s-.436-.256.306-.612a.933.933,0,0,1,.581-.746c.532-.205,1.419-1.35,1.838-1.318s.745-.58.8-.87.377-.209.894-.516.467-1.015,1.226-1.209.725-1.015,1.128-1.209a14.562,14.562,0,0,0,1.193-.9,2.569,2.569,0,0,1,.984-.452l-3.4,3.337s-.332.161-.553,1.016a1.325,1.325,0,0,1-.583.371c-.428.162-.458.644-.886.854s-.333.6-.848.6-.435.372-.952.452-.6.418-.919.676A7.336,7.336,0,0,1,1770.018,4195.921Z" transform="translate(-1763.786 -4183.434)" fill="none" stroke="#030502" stroke-miterlimit="10" stroke-width="0.5"/>
    <path id="Tracé_98" data-name="Tracé 98" d="M1777.4,4196.84s2.821-2.306,3.031-3.289.4.015,1.322-1.208a1.436,1.436,0,0,0,.548-.468s.807-.167.823-.293.548-.224.839-.514.661-.5.838-.418-.307.289-.484.579a5.1,5.1,0,0,1-1.789,1.419c-.467.082-.419.887-.823.983s-.484-.322-1.241.774a.769.769,0,0,1-.226.34,1.072,1.072,0,0,0-.709.773c-.161.612-1.7,1.322-1.7,1.322S1777.382,4197.029,1777.4,4196.84Z" transform="translate(-1765.449 -4183.998)" fill="none" stroke="#030502" stroke-miterlimit="10" stroke-width="0.5"/>
    <path id="Tracé_99" data-name="Tracé 99" d="M1778.926,4186.468s-.26-.912.465-1.219,1.5-1.709,1.919-1.821a31.418,31.418,0,0,1,4.434-1.274c.79.017,1.967.388,2.757.065s1.968.227,2.435.145a2.544,2.544,0,0,1,2.209.5s.339.321,1.5.257,1.483,1.419,1.983,1.387a1.255,1.255,0,0,1,.628,1.96,5.18,5.18,0,0,0-1.483,2.28c-.483,1.389-2.563.707-3.419,1.136s-1.273.269-1.66.59-2.96.209-2.96.209" transform="translate(-1765.776 -4182.113)" fill="none" stroke="#030502" stroke-miterlimit="10" stroke-width="0.5"/>
    <path id="Tracé_100" data-name="Tracé 100" d="M1790.85,4193.864a4.981,4.981,0,0,0,3.056-.227,2.274,2.274,0,0,1,.774-.176,3.234,3.234,0,0,0,1.628-.21c.564-.307,1.257-.951,1.983-.983s.693-.743.951-1.1.774-.42.928-.79-.105-2.6.169-2.854-.043-1.059-.169-1.241" transform="translate(-1768.424 -4183.037)" fill="none" stroke="#030502" stroke-miterlimit="10" stroke-width="0.5"/>
    <path id="Tracé_101" data-name="Tracé 101" d="M1788.187,4190.224a6.087,6.087,0,0,1-1.88-1.344s-.774-.624-.87-.935-.656-.484-.8-.528-.354.093-.558-.716a.6.6,0,0,0-.505-.186c-.376,0-.752-.839-1.226-1.054,0,0-.107-.053-.28-.5s.259-.07.367.06.881.8,1.042.774.677.538.838.549.476.673.792.648a.542.542,0,0,1,.519.493,8.987,8.987,0,0,0,2.236,2.322C1788.37,4189.944,1788.413,4190.212,1788.187,4190.224Z" transform="translate(-1766.473 -4182.696)" fill="none" stroke="#030502" stroke-miterlimit="10" stroke-width="0.5"/>
    <path id="Tracé_102" data-name="Tracé 102" d="M1789.246,4185.675l-3.022-2.915s.054-.193.645.107a4.844,4.844,0,0,1,1.924,1.818.545.545,0,0,0,.506.3c.365-.01.472.851.752.915s1.042.083,1.161.638.387.6.613.6.537.206,1.1.839a2.519,2.519,0,0,0,.419.323.548.548,0,0,1,.322.407c.053.236.526.313.462.474s-.076.441-.731-.065-.645-.708-.913-.687-.28-.387-.559-.409-.269.14-.763-.4a4.617,4.617,0,0,0-1.032-.945s-.613-.275-.667-.428S1789.346,4185.74,1789.246,4185.675Z" transform="translate(-1767.401 -4182.242)" fill="none" stroke="#030502" stroke-miterlimit="10" stroke-width="0.5"/>
    <path id="Tracé_103" data-name="Tracé 103" d="M1798.7,4188.4a7.183,7.183,0,0,1-1.878-1.338c-.436-.557-.677-.357-.838-.654s-.113-.565-.726-.725-.427-.742-.887-.863-.959-.686-1.241-.846-.669-.718-.556-.726,1.241.854,1.4.927a1.72,1.72,0,0,1,1.186.606c.7.676.411.514.717.554s.161.714.709,1.029a13.6,13.6,0,0,1,1.551,1.452C1798.212,4187.839,1798.766,4188.366,1798.7,4188.4Z" transform="translate(-1768.802 -4182.364)" fill="none" stroke="#030502" stroke-miterlimit="10" stroke-width="0.5"/>
  </g>
</svg>
